<svg xmlns="http://www.w3.org/2000/svg" xmlns:xlink="http://www.w3.org/1999/xlink" width="100% " x="100px" y="100px" zoomAndPan="magnify" viewBox="0 0 375 374.999991" height="60" preserveAspectRatio="xMidYMid meet" version="1.0"><defs><g/></defs><rect x="-37.5" width="450" fill="#ffffff" y="-37.499999" height="449.999989" fill-opacity="1"/><rect x="-37.5" width="450" fill="#ffffff" y="-37.499999" height="449.999989" fill-opacity="1"/><g fill="#000000" fill-opacity="1"><g transform="translate(68.230466, 218.487537)"><g><path d="M 42.949219 -14.953125 L 31.929688 -31.367188 C 49.46875 -35.867188 55.089844 -43.734375 55.089844 -52.394531 C 55.089844 -59.925781 51.269531 -69.820312 29.570312 -69.820312 C 22.484375 -69.820312 12.03125 -69.371094 2.8125 -69.820312 L 2.8125 -68.132812 C 9.21875 -67.457031 10.457031 -63.972656 10.457031 -61.050781 L 10.457031 -7.308594 C 10.457031 -3.371094 8.542969 -2.136719 2.8125 -1.6875 L 2.8125 0 C 10.570312 -0.335938 18.4375 -0.335938 26.195312 0 L 26.195312 -1.6875 C 20.460938 -2.136719 18.550781 -3.371094 18.550781 -7.308594 L 18.550781 -28.78125 L 22.035156 -29.34375 L 23.835938 -29.683594 L 35.191406 -13.378906 C 41.597656 -4.160156 48.007812 1.125 58.125 0.898438 L 59.8125 -1.238281 C 56.101562 -1.460938 48.34375 -6.859375 42.949219 -14.953125 Z M 18.550781 -31.144531 L 18.550781 -67.457031 L 30.019531 -67.457031 C 41.261719 -67.457031 46.097656 -61.164062 46.097656 -51.941406 C 46.097656 -42.5 41.261719 -34.742188 22.710938 -31.816406 Z M 18.550781 -31.144531 "/></g></g></g><g fill="#000000" fill-opacity="1"><g transform="translate(122.983206, 218.487537)"><g><path d="M 25.632812 -69.820312 C 17.3125 -69.820312 12.03125 -69.371094 2.8125 -69.820312 L 2.8125 -68.132812 C 9.21875 -67.457031 10.457031 -64.535156 10.457031 -61.050781 L 10.457031 -7.53125 C 10.457031 -4.273438 8.433594 -3.148438 2.8125 -1.6875 L 2.8125 0 C 8.65625 -1.347656 11.691406 -1.460938 16.078125 -1.460938 C 19.339844 -1.460938 24.621094 0 30.917969 0 C 48.792969 0 62.511719 -13.714844 62.511719 -35.976562 C 62.511719 -58.464844 48.007812 -69.820312 25.632812 -69.820312 Z M 29.34375 -2.25 C 23.496094 -2.25 18.550781 -3.710938 18.550781 -9.554688 L 18.550781 -67.234375 C 21.8125 -67.457031 24.511719 -67.457031 25.859375 -67.457031 C 46.433594 -67.457031 53.964844 -52.054688 53.964844 -33.730469 C 53.964844 -16.191406 48.121094 -2.25 29.34375 -2.25 Z M 29.34375 -2.25 "/></g></g></g><path stroke-linecap="butt" transform="matrix(0.75, 0, 0, 0.75, 152.377305, 149.147671)" fill="none" stroke-linejoin="miter" d="M 0.00213514 1.001022 L 215.335483 1.001022 " stroke="#000000" stroke-width="2" stroke-opacity="1" stroke-miterlimit="4"/><path stroke-linecap="butt" transform="matrix(0.75, 0, 0, 0.75, 143.596358, 217.062979)" fill="none" stroke-linejoin="miter" d="M 0.00173064 0.999361 L 227.043412 0.999361 " stroke="#000000" stroke-width="2" stroke-opacity="1" stroke-miterlimit="4"/><g fill="#000000" fill-opacity="1"><g transform="translate(194.840075, 181.753811)"><g><path d="M 8.53125 0 L 6.234375 -3.25 C 5.972656 -3.21875 5.703125 -3.203125 5.421875 -3.203125 L 2.71875 -3.203125 L 2.71875 0 L 1.640625 0 L 1.640625 -10.09375 L 5.421875 -10.09375 C 6.710938 -10.09375 7.722656 -9.785156 8.453125 -9.171875 C 9.179688 -8.554688 9.546875 -7.710938 9.546875 -6.640625 C 9.546875 -5.847656 9.34375 -5.179688 8.9375 -4.640625 C 8.539062 -4.097656 7.972656 -3.707031 7.234375 -3.46875 L 9.703125 0 Z M 5.390625 -4.109375 C 6.390625 -4.109375 7.15625 -4.328125 7.6875 -4.765625 C 8.21875 -5.210938 8.484375 -5.835938 8.484375 -6.640625 C 8.484375 -7.453125 8.21875 -8.078125 7.6875 -8.515625 C 7.15625 -8.953125 6.390625 -9.171875 5.390625 -9.171875 L 2.71875 -9.171875 L 2.71875 -4.109375 Z M 5.390625 -4.109375 "/></g></g></g><g fill="#000000" fill-opacity="1"><g transform="translate(213.192534, 181.753811)"><g><path d="M 8.78125 -0.921875 L 8.78125 0 L 1.640625 0 L 1.640625 -10.09375 L 8.5625 -10.09375 L 8.5625 -9.171875 L 2.71875 -9.171875 L 2.71875 -5.578125 L 7.9375 -5.578125 L 7.9375 -4.671875 L 2.71875 -4.671875 L 2.71875 -0.921875 Z M 8.78125 -0.921875 "/></g></g></g><g fill="#000000" fill-opacity="1"><g transform="translate(230.766618, 181.753811)"><g><path d="M 4.421875 0.09375 C 3.671875 0.09375 2.953125 -0.0234375 2.265625 -0.265625 C 1.578125 -0.515625 1.046875 -0.832031 0.671875 -1.21875 L 1.09375 -2.046875 C 1.457031 -1.679688 1.941406 -1.382812 2.546875 -1.15625 C 3.160156 -0.9375 3.785156 -0.828125 4.421875 -0.828125 C 5.328125 -0.828125 6.003906 -0.988281 6.453125 -1.3125 C 6.910156 -1.644531 7.140625 -2.078125 7.140625 -2.609375 C 7.140625 -3.015625 7.015625 -3.335938 6.765625 -3.578125 C 6.523438 -3.816406 6.226562 -4 5.875 -4.125 C 5.519531 -4.257812 5.023438 -4.40625 4.390625 -4.5625 C 3.628906 -4.75 3.019531 -4.929688 2.5625 -5.109375 C 2.113281 -5.285156 1.726562 -5.554688 1.40625 -5.921875 C 1.082031 -6.285156 0.921875 -6.78125 0.921875 -7.40625 C 0.921875 -7.914062 1.054688 -8.378906 1.328125 -8.796875 C 1.597656 -9.222656 2.007812 -9.5625 2.5625 -9.8125 C 3.125 -10.0625 3.816406 -10.1875 4.640625 -10.1875 C 5.222656 -10.1875 5.789062 -10.101562 6.34375 -9.9375 C 6.894531 -9.78125 7.367188 -9.5625 7.765625 -9.28125 L 7.40625 -8.4375 C 6.988281 -8.71875 6.539062 -8.925781 6.0625 -9.0625 C 5.582031 -9.195312 5.109375 -9.265625 4.640625 -9.265625 C 3.753906 -9.265625 3.085938 -9.09375 2.640625 -8.75 C 2.191406 -8.414062 1.96875 -7.976562 1.96875 -7.4375 C 1.96875 -7.039062 2.09375 -6.71875 2.34375 -6.46875 C 2.59375 -6.21875 2.898438 -6.03125 3.265625 -5.90625 C 3.640625 -5.78125 4.140625 -5.640625 4.765625 -5.484375 C 5.503906 -5.296875 6.097656 -5.113281 6.546875 -4.9375 C 7.003906 -4.757812 7.390625 -4.488281 7.703125 -4.125 C 8.023438 -3.769531 8.1875 -3.285156 8.1875 -2.671875 C 8.1875 -2.160156 8.050781 -1.695312 7.78125 -1.28125 C 7.507812 -0.863281 7.085938 -0.53125 6.515625 -0.28125 C 5.953125 -0.03125 5.253906 0.09375 4.421875 0.09375 Z M 4.421875 0.09375 "/></g></g></g><g fill="#000000" fill-opacity="1"><g transform="translate(247.56234, 181.753811)"><g><path d="M 5.71875 0.09375 C 4.40625 0.09375 3.382812 -0.28125 2.65625 -1.03125 C 1.925781 -1.78125 1.5625 -2.875 1.5625 -4.3125 L 1.5625 -10.09375 L 2.625 -10.09375 L 2.625 -4.359375 C 2.625 -3.179688 2.890625 -2.300781 3.421875 -1.71875 C 3.953125 -1.144531 4.71875 -0.859375 5.71875 -0.859375 C 6.71875 -0.859375 7.484375 -1.144531 8.015625 -1.71875 C 8.546875 -2.300781 8.8125 -3.179688 8.8125 -4.359375 L 8.8125 -10.09375 L 9.84375 -10.09375 L 9.84375 -4.3125 C 9.84375 -2.875 9.476562 -1.78125 8.75 -1.03125 C 8.03125 -0.28125 7.019531 0.09375 5.71875 0.09375 Z M 5.71875 0.09375 "/></g></g></g><g fill="#000000" fill-opacity="1"><g transform="translate(266.909379, 181.753811)"><g><path d="M 12.125 -10.09375 L 12.125 0 L 11.109375 0 L 11.109375 -8.078125 L 7.140625 -1.28125 L 6.640625 -1.28125 L 2.671875 -8.03125 L 2.671875 0 L 1.640625 0 L 1.640625 -10.09375 L 2.53125 -10.09375 L 6.90625 -2.609375 L 11.25 -10.09375 Z M 12.125 -10.09375 "/></g></g></g><g fill="#000000" fill-opacity="1"><g transform="translate(288.605942, 181.753811)"><g><path d="M 8.78125 -0.921875 L 8.78125 0 L 1.640625 0 L 1.640625 -10.09375 L 8.5625 -10.09375 L 8.5625 -9.171875 L 2.71875 -9.171875 L 2.71875 -5.578125 L 7.9375 -5.578125 L 7.9375 -4.671875 L 2.71875 -4.671875 L 2.71875 -0.921875 Z M 8.78125 -0.921875 "/></g></g></g><g fill="#000000" fill-opacity="1"><g transform="translate(194.840075, 202.835081)"><g><path d="M 1.640625 -10.09375 L 5.75 -10.09375 C 6.820312 -10.09375 7.765625 -9.878906 8.578125 -9.453125 C 9.398438 -9.023438 10.035156 -8.425781 10.484375 -7.65625 C 10.929688 -6.894531 11.15625 -6.023438 11.15625 -5.046875 C 11.15625 -4.066406 10.929688 -3.191406 10.484375 -2.421875 C 10.035156 -1.660156 9.398438 -1.066406 8.578125 -0.640625 C 7.765625 -0.210938 6.820312 0 5.75 0 L 1.640625 0 Z M 5.703125 -0.921875 C 6.585938 -0.921875 7.359375 -1.09375 8.015625 -1.4375 C 8.679688 -1.789062 9.195312 -2.28125 9.5625 -2.90625 C 9.925781 -3.53125 10.109375 -4.242188 10.109375 -5.046875 C 10.109375 -5.859375 9.925781 -6.570312 9.5625 -7.1875 C 9.195312 -7.8125 8.679688 -8.296875 8.015625 -8.640625 C 7.359375 -8.992188 6.585938 -9.171875 5.703125 -9.171875 L 2.71875 -9.171875 L 2.71875 -0.921875 Z M 5.703125 -0.921875 "/></g></g></g><g fill="#000000" fill-opacity="1"><g transform="translate(214.677205, 202.835081)"><g><path d="M 8.78125 -0.921875 L 8.78125 0 L 1.640625 0 L 1.640625 -10.09375 L 8.5625 -10.09375 L 8.5625 -9.171875 L 2.71875 -9.171875 L 2.71875 -5.578125 L 7.9375 -5.578125 L 7.9375 -4.671875 L 2.71875 -4.671875 L 2.71875 -0.921875 Z M 8.78125 -0.921875 "/></g></g></g><g fill="#000000" fill-opacity="1"><g transform="translate(232.251289, 202.835081)"><g><path d="M 10.03125 -10.09375 L 5.5625 0 L 4.515625 0 L 0.046875 -10.09375 L 1.203125 -10.09375 L 5.0625 -1.328125 L 8.953125 -10.09375 Z M 10.03125 -10.09375 "/></g></g></g></svg>